<svg width="25" height="24" viewBox="0 0 25 24" fill="none" xmlns="http://www.w3.org/2000/svg">
<g clip-path="url(#clip0_210_593)">
<path d="M2.08956 7.71432C1.86224 7.71432 1.64422 7.62401 1.48347 7.46327C1.32273 7.30252 1.23242 7.08451 1.23242 6.85718V1.71432C1.23242 1.48699 1.32273 1.26897 1.48347 1.10823C1.64422 0.947484 1.86224 0.857178 2.08956 0.857178H22.661C22.8883 0.857178 23.1063 0.947484 23.2671 1.10823C23.4278 1.26897 23.5181 1.48699 23.5181 1.71432V6.85718C23.5181 7.08451 23.4278 7.30252 23.2671 7.46327C23.1063 7.62401 22.8883 7.71432 22.661 7.71432" stroke="white" stroke-width="1.71429" stroke-linecap="round" stroke-linejoin="round"/>
<path d="M17.5179 5.14307H7.23214C6.75876 5.14307 6.375 5.52682 6.375 6.00021V18.0002C6.375 18.4736 6.75876 18.8574 7.23214 18.8574H17.5179C17.9912 18.8574 18.375 18.4736 18.375 18.0002V6.00021C18.375 5.52682 17.9912 5.14307 17.5179 5.14307Z" stroke="white" stroke-width="1.71429" stroke-linecap="round" stroke-linejoin="round"/>
<path d="M12.3751 14.5716C13.7953 14.5716 14.9466 13.4203 14.9466 12.0001C14.9466 10.58 13.7953 9.42871 12.3751 9.42871C10.955 9.42871 9.80371 10.58 9.80371 12.0001C9.80371 13.4203 10.955 14.5716 12.3751 14.5716Z" stroke="#2DD4BF" stroke-width="1.71429" stroke-linecap="round" stroke-linejoin="round"/>
<path d="M6.375 23.1431H18.375" stroke="white" stroke-width="1.71429" stroke-linecap="round" stroke-linejoin="round"/>
</g>
<defs>
<clipPath id="clip0_210_593">
<rect width="24" height="24" fill="white" transform="translate(0.375)"/>
</clipPath>
</defs>
</svg>
