<svg width="20" height="20" viewBox="0 0 20 20" fill="none" xmlns="http://www.w3.org/2000/svg">
<path d="M5.83333 13.6111C5.83333 13.9549 5.96991 14.2846 6.21301 14.5277C6.45611 14.7708 6.78583 14.9074 7.12963 14.9074H14.9074L17.5 17.5V7.12961C17.5 6.78581 17.3634 6.45609 17.1203 6.21299C16.8772 5.96989 16.5475 5.83331 16.2037 5.83331" stroke="#0081FA" stroke-width="1.5" stroke-linecap="round" stroke-linejoin="round"/>
<path d="M14.1667 10.2778C14.1667 10.6216 14.0301 10.9513 13.787 11.1944C13.5439 11.4375 13.2142 11.5741 12.8704 11.5741H5.09259L2.5 14.1667V3.7963C2.5 3.4525 2.63657 3.12278 2.87968 2.87968C3.12278 2.63657 3.4525 2.5 3.7963 2.5H12.8704C13.2142 2.5 13.5439 2.63657 13.787 2.87968C14.0301 3.12278 14.1667 3.4525 14.1667 3.7963V10.2778Z" stroke="#0081FA" stroke-width="1.5" stroke-linecap="round" stroke-linejoin="round"/>
</svg>
