<svg width="24" height="24" viewBox="0 0 24 24" fill="none" xmlns="http://www.w3.org/2000/svg">
<path d="M7 16.3333C7 16.7459 7.16389 17.1416 7.45561 17.4333C7.74734 17.725 8.143 17.8889 8.55556 17.8889H17.8889L21 21V8.55556C21 8.143 20.8361 7.74733 20.5444 7.45561C20.2527 7.16389 19.857 7 19.4444 7" stroke="#B0ACB3" stroke-width="2" stroke-linecap="round" stroke-linejoin="round"/>
<path d="M17 12.3333C17 12.7459 16.8361 13.1416 16.5444 13.4333C16.2527 13.725 15.857 13.8889 15.4444 13.8889H6.11111L3 17V4.55556C3 4.143 3.16389 3.74733 3.45561 3.45561C3.74733 3.16389 4.143 3 4.55556 3H15.4444C15.857 3 16.2527 3.16389 16.5444 3.45561C16.8361 3.74733 17 4.143 17 4.55556V12.3333Z" stroke="#B0ACB3" stroke-width="2" stroke-linecap="round" stroke-linejoin="round"/>
</svg>
