<svg width="27" height="24" viewBox="0 0 27 24" fill="none" xmlns="http://www.w3.org/2000/svg">
<path d="M11.2415 0C9.90458 0 8.8401 1.01354 8.8401 2.24707V9.75H17.6536C18.3216 9.75 19.0252 10.0368 19.4523 10.4868C19.8793 10.9368 20.055 11.4766 20.055 11.9971C20.055 12.5176 19.8793 13.0588 19.4523 13.5088C19.0252 13.9588 18.3216 14.2515 17.6536 14.2515H8.8401V21.7529C8.8401 23.001 9.92337 24 11.2415 24H24.0719C25.3901 24 26.4733 23.0011 26.4733 21.7529V2.24707C26.4733 1.01354 25.4057 0 24.0719 0H11.2415ZM5.06423 7.72265L1.05824 11.4712C0.746536 11.7629 0.746536 12.2371 1.05824 12.5288L5.06423 16.2773C5.82184 16.9863 6.95835 15.9228 6.20075 15.2139L3.56296 12.75H17.6598C18.7274 12.75 18.7274 11.25 17.6598 11.25H3.56766L6.20075 8.78613C6.9321 8.02332 5.82509 7.04087 5.06423 7.72265Z" fill="#EF6464"/>
</svg>
