<svg width="25" height="18" viewBox="0 0 25 18" fill="none" xmlns="http://www.w3.org/2000/svg">
<path d="M18.8199 7.29903L13.3225 6.74359L13.1179 8.76913C12.9728 10.2051 11.6865 11.2554 10.2507 11.1103C8.81486 10.9652 7.7647 9.67889 7.90978 8.24293L8.35417 3.84461L5.86439 5.0181C5.12434 5.36353 4.62119 6.07637 4.53932 6.88659L4.36647 8.59744L1.30425 9.97618C0.718733 10.2386 0.455418 10.9281 0.721392 11.5141L3.10825 16.8196C3.37061 17.4052 4.06048 17.6649 4.646 17.4025L8.60387 15.621L13.5443 16.1201C14.821 16.2491 15.9639 15.3159 16.0929 14.0391L16.6716 14.0976C17.3117 14.1622 17.8812 13.6973 17.9459 13.057L18.1798 10.7421L18.4691 10.7714C18.9501 10.82 19.3762 10.4721 19.4248 9.99099L19.6002 8.25482C19.6488 7.77375 19.3009 7.34763 18.8199 7.29903ZM24.2985 6.48599L21.9116 1.18044C21.6493 0.59488 20.9594 0.335172 20.3739 0.597562L16.416 2.37909L12.7197 2.00563C12.2857 1.96178 11.8502 2.042 11.4582 2.2326L10.1702 2.86614C9.80907 3.04158 9.5689 3.39367 9.5287 3.79155L9.06713 8.35986C8.98637 9.15922 9.56834 9.87208 10.3676 9.95284C11.1669 10.0336 11.8797 9.45156 11.9605 8.6522L12.2821 5.46921L18.9369 6.14158C20.0544 6.2545 20.8705 7.25409 20.7576 8.37175L20.6534 9.40261L23.7156 8.02388C24.3015 7.75787 24.5609 7.07155 24.2985 6.48599Z" fill="#B0ACB3"/>
</svg>
