<svg width="36" height="39" viewBox="0 0 36 39" fill="none" xmlns="http://www.w3.org/2000/svg">
<rect x="2.00024" y="26.9951" width="32" height="5" rx="2.5" fill="#FFB988"/>
<path d="M6 22.9951C6 19.6814 8.68629 16.9951 12 16.9951H24C27.3137 16.9951 30 19.6814 30 22.9951C30 23.5474 29.5523 23.9951 29 23.9951H7C6.44772 23.9951 6 23.5474 6 22.9951Z" fill="white"/>
<rect x="12.9998" y="4.99512" width="10" height="10" rx="5" fill="white"/>
<g filter="url(#filter0_b_185_455)">
<path d="M11.0002 11.7313C11.0002 10.3791 12.6488 9.71722 13.5838 10.694L15.1107 12.2891C16.6858 13.9344 19.3147 13.9344 20.8897 12.2891L22.4167 10.694C23.3517 9.71722 25.0002 10.3791 25.0002 11.7313V16.9951C25.0002 19.2043 23.2094 20.9951 21.0002 20.9951H15.0002C12.7911 20.9951 11.0002 19.2043 11.0002 16.9951V11.7313Z" fill="white" fill-opacity="0.09"/>
<path d="M11.0002 11.7313C11.0002 10.3791 12.6488 9.71722 13.5838 10.694L15.1107 12.2891C16.6858 13.9344 19.3147 13.9344 20.8897 12.2891L22.4167 10.694C23.3517 9.71722 25.0002 10.3791 25.0002 11.7313V16.9951C25.0002 19.2043 23.2094 20.9951 21.0002 20.9951H15.0002C12.7911 20.9951 11.0002 19.2043 11.0002 16.9951V11.7313Z" stroke="url(#paint0_linear_185_455)" stroke-opacity="0.28" stroke-width="0.3" stroke-linecap="round" stroke-linejoin="round"/>
</g>
<defs>
<filter id="filter0_b_185_455" x="7.85034" y="7.07788" width="20.2998" height="17.0671" filterUnits="userSpaceOnUse" color-interpolation-filters="sRGB">
<feFlood flood-opacity="0" result="BackgroundImageFix"/>
<feGaussianBlur in="BackgroundImageFix" stdDeviation="1.5"/>
<feComposite in2="SourceAlpha" operator="in" result="effect1_backgroundBlur_185_455"/>
<feBlend mode="normal" in="SourceGraphic" in2="effect1_backgroundBlur_185_455" result="shape"/>
</filter>
<linearGradient id="paint0_linear_185_455" x1="18.0002" y1="7.99512" x2="18.0002" y2="20.9951" gradientUnits="userSpaceOnUse">
<stop stop-color="white"/>
<stop offset="1" stop-color="white" stop-opacity="0"/>
</linearGradient>
</defs>
</svg>
