<svg width="24" height="24" viewBox="0 0 24 24" fill="none" xmlns="http://www.w3.org/2000/svg">
<path d="M5.37866 6.72949H9.04491V8.26883H5.37866V6.72949Z" fill="white"/>
<path d="M5.37866 10.2299H9.04491V11.7692H5.37866V10.2299Z" fill="white"/>
<path d="M5.37866 13.7301H9.04491V15.2694H5.37866V13.7301Z" fill="white"/>
<path d="M5.37866 17.2305H9.04491V18.7698H5.37866V17.2305Z" fill="white"/>
<path d="M12.7928 20.8196V8.24181L20.8308 8.23242V16.7175H22.3692V7.46186C22.3692 7.04196 22.0184 6.69217 21.5991 6.69217L12.0227 6.70335C11.5982 6.70386 11.2544 7.04827 11.2544 7.47304V20.8196H3.16923V5.58904L11.2544 3.41401V5.16145H12.7928V2.41007C12.7928 1.91212 12.3051 1.53735 11.8238 1.66678L2.20025 4.25565C1.86431 4.34606 1.63077 4.65083 1.63077 4.99894V20.8196H0V22.3589H24V20.8196H12.7928Z" fill="white"/>
<path d="M20.8308 18.1029H22.3693V19.5368H20.8308V18.1029Z" fill="white"/>
<path d="M14.9551 10.2299H18.6213V11.7692H14.9551V10.2299Z" fill="white"/>
<path d="M14.9551 13.7302H18.6213V15.2696H14.9551V13.7302Z" fill="white"/>
<path d="M14.9551 17.2305H18.6213V18.7698H14.9551V17.2305Z" fill="white"/>
</svg>
