<svg width="25" height="24" viewBox="0 0 25 24" fill="none" xmlns="http://www.w3.org/2000/svg">
<g clip-path="url(#clip0_210_612)">
<path d="M21.4467 12.857V9.4284C21.4467 8.97374 21.2661 8.53771 20.9446 8.21621C20.6231 7.89472 20.1871 7.71411 19.7324 7.71411H3.44671C2.99205 7.71411 2.55602 7.89472 2.23452 8.21621C1.91303 8.53771 1.73242 8.97374 1.73242 9.4284V21.4284C1.73242 21.8831 1.91303 22.3191 2.23452 22.6406C2.55602 22.9621 2.99205 23.1427 3.44671 23.1427H19.7324C20.1871 23.1427 20.6231 22.9621 20.9446 22.6406C21.2661 22.3191 21.4467 21.8831 21.4467 21.4284V17.1427" stroke="white" stroke-width="1.71429" stroke-linecap="round" stroke-linejoin="round"/>
<path d="M7.45801 3.42849L17.178 0.891343C17.2872 0.860569 17.4016 0.852244 17.5141 0.866871C17.6266 0.881498 17.735 0.918774 17.8327 0.976449C17.9305 1.03412 18.0155 1.111 18.0827 1.20244C18.1499 1.29388 18.1979 1.39799 18.2237 1.50849L18.7037 3.42849" stroke="#2DD4BF" stroke-width="1.71429" stroke-linecap="round" stroke-linejoin="round"/>
<path d="M23.1614 12.8572H18.8757C18.4023 12.8572 18.0186 13.2409 18.0186 13.7143V16.2857C18.0186 16.7591 18.4023 17.1429 18.8757 17.1429H23.1614C23.6348 17.1429 24.0186 16.7591 24.0186 16.2857V13.7143C24.0186 13.2409 23.6348 12.8572 23.1614 12.8572Z" stroke="#2DD4BF" stroke-width="1.71429" stroke-linecap="round" stroke-linejoin="round"/>
</g>
<defs>
<clipPath id="clip0_210_612">
<rect width="24" height="24" fill="white" transform="translate(0.875)"/>
</clipPath>
</defs>
</svg>
