<svg width="125" height="70" viewBox="0 10 132 40" fill="none" xmlns="http://www.w3.org/2000/svg">
<g filter="url(#filter0_d_0_1)">
<circle cx="66" cy="41" r="26" fill="white"/>
</g>
<rect x="50.0002" y="51.9949" width="32" height="5" rx="2.5" fill="#FFB988"/>
<path d="M54 47.9952C54 44.6815 56.6863 41.9952 60 41.9952H72C75.3137 41.9952 78 44.6815 78 47.9952V47.9952C78 48.5475 77.5523 48.9952 77 48.9952H55C54.4477 48.9952 54 48.5475 54 47.9952V47.9952Z" fill="#0A2463"/>
<rect x="60.9998" y="29.9952" width="10" height="10" rx="5" fill="#0A2463"/>
<g filter="url(#filter1_b_0_1)">
<path d="M59.0002 36.7313C59.0002 35.3791 60.6488 34.7173 61.5838 35.6941L63.1107 37.2892C64.6858 38.9345 67.3147 38.9345 68.8897 37.2892L70.4167 35.6941C71.3517 34.7173 73.0002 35.3791 73.0002 36.7313V41.9952C73.0002 44.2043 71.2094 45.9952 69.0002 45.9952H63.0002C60.7911 45.9952 59.0002 44.2043 59.0002 41.9952V36.7313Z" fill="white" fill-opacity="0.3"/>
<path d="M59.0002 36.7313C59.0002 35.3791 60.6488 34.7173 61.5838 35.6941L63.1107 37.2892C64.6858 38.9345 67.3147 38.9345 68.8897 37.2892L70.4167 35.6941C71.3517 34.7173 73.0002 35.3791 73.0002 36.7313V41.9952C73.0002 44.2043 71.2094 45.9952 69.0002 45.9952H63.0002C60.7911 45.9952 59.0002 44.2043 59.0002 41.9952V36.7313Z" stroke="url(#paint0_linear_0_1)" stroke-opacity="0.5" stroke-width="0.3" stroke-linecap="round" stroke-linejoin="round"/>
</g>
<defs>
<filter id="filter0_d_0_1" x="0" y="-13" width="132" height="132" filterUnits="userSpaceOnUse" color-interpolation-filters="sRGB">
<feFlood flood-opacity="0" result="BackgroundImageFix"/>
<feColorMatrix in="SourceAlpha" type="matrix" values="0 0 0 0 0 0 0 0 0 0 0 0 0 0 0 0 0 0 127 0" result="hardAlpha"/>
<feOffset dy="12"/>
<feGaussianBlur stdDeviation="20"/>
<feComposite in2="hardAlpha" operator="out"/>
<feColorMatrix type="matrix" values="0 0 0 0 0.26125 0 0 0 0 0.279957 0 0 0 0 0.3 0 0 0 0.06 0"/>
<feBlend mode="normal" in2="BackgroundImageFix" result="effect1_dropShadow_0_1"/>
<feBlend mode="normal" in="SourceGraphic" in2="effect1_dropShadow_0_1" result="shape"/>
</filter>
<filter id="filter1_b_0_1" x="55.8503" y="32.078" width="20.2998" height="17.0672" filterUnits="userSpaceOnUse" color-interpolation-filters="sRGB">
<feFlood flood-opacity="0" result="BackgroundImageFix"/>
<feGaussianBlur in="BackgroundImageFix" stdDeviation="1.5"/>
<feComposite in2="SourceAlpha" operator="in" result="effect1_backgroundBlur_0_1"/>
<feBlend mode="normal" in="SourceGraphic" in2="effect1_backgroundBlur_0_1" result="shape"/>
</filter>
<linearGradient id="paint0_linear_0_1" x1="66.0002" y1="32.9952" x2="66.0002" y2="45.9952" gradientUnits="userSpaceOnUse">
<stop stop-color="white"/>
<stop offset="1" stop-color="white" stop-opacity="0"/>
</linearGradient>
</defs>
</svg>
