<svg width="125" height="70" viewBox="0 20 132 40" fill="none" xmlns="http://www.w3.org/2000/svg">
<g filter="url(#filter0_d_35_2075)">
<circle cx="66" cy="53" r="26" fill="#0A2463"/>
</g>
<rect x="50.0002" y="63.9951" width="32" height="5" rx="2.5" fill="#FFB988"/>
<path d="M54 59.9951C54 56.6814 56.6863 53.9951 60 53.9951H72C75.3137 53.9951 78 56.6814 78 59.9951C78 60.5474 77.5523 60.9951 77 60.9951H55C54.4477 60.9951 54 60.5474 54 59.9951Z" fill="white"/>
<rect x="60.9998" y="41.9951" width="10" height="10" rx="5" fill="white"/>
<g filter="url(#filter1_b_35_2075)">
<path d="M59.0002 48.7313C59.0002 47.3791 60.6488 46.7172 61.5838 47.694L63.1107 49.2891C64.6858 50.9344 67.3147 50.9344 68.8897 49.2891L70.4167 47.694C71.3517 46.7172 73.0002 47.3791 73.0002 48.7313V53.9951C73.0002 56.2043 71.2094 57.9951 69.0002 57.9951H63.0002C60.7911 57.9951 59.0002 56.2043 59.0002 53.9951V48.7313Z" fill="white" fill-opacity="0.09"/>
<path d="M59.0002 48.7313C59.0002 47.3791 60.6488 46.7172 61.5838 47.694L63.1107 49.2891C64.6858 50.9344 67.3147 50.9344 68.8897 49.2891L70.4167 47.694C71.3517 46.7172 73.0002 47.3791 73.0002 48.7313V53.9951C73.0002 56.2043 71.2094 57.9951 69.0002 57.9951H63.0002C60.7911 57.9951 59.0002 56.2043 59.0002 53.9951V48.7313Z" stroke="url(#paint0_linear_35_2075)" stroke-opacity="0.28" stroke-width="0.3" stroke-linecap="round" stroke-linejoin="round"/>
</g>
<defs>
<filter id="filter0_d_35_2075" x="0" y="-1" width="132" height="132" filterUnits="userSpaceOnUse" color-interpolation-filters="sRGB">
<feFlood flood-opacity="0" result="BackgroundImageFix"/>
<feColorMatrix in="SourceAlpha" type="matrix" values="0 0 0 0 0 0 0 0 0 0 0 0 0 0 0 0 0 0 127 0" result="hardAlpha"/>
<feOffset dy="12"/>
<feGaussianBlur stdDeviation="20"/>
<feComposite in2="hardAlpha" operator="out"/>
<feColorMatrix type="matrix" values="0 0 0 0 0.26125 0 0 0 0 0.279957 0 0 0 0 0.3 0 0 0 0.06 0"/>
<feBlend mode="normal" in2="BackgroundImageFix" result="effect1_dropShadow_35_2075"/>
<feBlend mode="normal" in="SourceGraphic" in2="effect1_dropShadow_35_2075" result="shape"/>
</filter>
<filter id="filter1_b_35_2075" x="55.8502" y="44.0779" width="20.3" height="17.0671" filterUnits="userSpaceOnUse" color-interpolation-filters="sRGB">
<feFlood flood-opacity="0" result="BackgroundImageFix"/>
<feGaussianBlur in="BackgroundImageFix" stdDeviation="1.5"/>
<feComposite in2="SourceAlpha" operator="in" result="effect1_backgroundBlur_35_2075"/>
<feBlend mode="normal" in="SourceGraphic" in2="effect1_backgroundBlur_35_2075" result="shape"/>
</filter>
<linearGradient id="paint0_linear_35_2075" x1="66.0002" y1="44.9951" x2="66.0002" y2="57.9951" gradientUnits="userSpaceOnUse">
<stop stop-color="white"/>
<stop offset="1" stop-color="white" stop-opacity="0"/>
</linearGradient>
</defs>
</svg>
