<svg width="120" height="132" viewBox="0 30 120 100" fill="none" xmlns="http://www.w3.org/2000/svg">
<g filter="url(#filter0_d_185_453)">
<circle cx="54" cy="54" r="26" fill="#0A2463"/>
</g>
<rect x="38.0002" y="64.9951" width="32" height="5" rx="2.5" fill="#FFB988"/>
<path d="M42 60.9951C42 57.6814 44.6863 54.9951 48 54.9951H60C63.3137 54.9951 66 57.6814 66 60.9951C66 61.5474 65.5523 61.9951 65 61.9951H43C42.4477 61.9951 42 61.5474 42 60.9951Z" fill="white"/>
<rect x="48.9998" y="42.9951" width="10" height="10" rx="5" fill="white"/>
<g filter="url(#filter1_b_185_453)">
<path d="M47.0002 49.7313C47.0002 48.3791 48.6488 47.7172 49.5838 48.694L51.1107 50.2891C52.6858 51.9344 55.3147 51.9344 56.8897 50.2891L58.4167 48.694C59.3517 47.7172 61.0002 48.3791 61.0002 49.7313V54.9951C61.0002 57.2043 59.2094 58.9951 57.0002 58.9951H51.0002C48.7911 58.9951 47.0002 57.2043 47.0002 54.9951V49.7313Z" fill="white" fill-opacity="0.09"/>
<path d="M47.0002 49.7313C47.0002 48.3791 48.6488 47.7172 49.5838 48.694L51.1107 50.2891C52.6858 51.9344 55.3147 51.9344 56.8897 50.2891L58.4167 48.694C59.3517 47.7172 61.0002 48.3791 61.0002 49.7313V54.9951C61.0002 57.2043 59.2094 58.9951 57.0002 58.9951H51.0002C48.7911 58.9951 47.0002 57.2043 47.0002 54.9951V49.7313Z" stroke="url(#paint0_linear_185_453)" stroke-opacity="0.28" stroke-width="0.3" stroke-linecap="round" stroke-linejoin="round"/>
</g>
<defs>
<filter id="filter0_d_185_453" x="-12" y="0" width="132" height="132" filterUnits="userSpaceOnUse" color-interpolation-filters="sRGB">
<feFlood flood-opacity="0" result="BackgroundImageFix"/>
<feColorMatrix in="SourceAlpha" type="matrix" values="0 0 0 0 0 0 0 0 0 0 0 0 0 0 0 0 0 0 127 0" result="hardAlpha"/>
<feOffset dy="12"/>
<feGaussianBlur stdDeviation="20"/>
<feComposite in2="hardAlpha" operator="out"/>
<feColorMatrix type="matrix" values="0 0 0 0 0.26125 0 0 0 0 0.279957 0 0 0 0 0.3 0 0 0 0.06 0"/>
<feBlend mode="normal" in2="BackgroundImageFix" result="effect1_dropShadow_185_453"/>
<feBlend mode="normal" in="SourceGraphic" in2="effect1_dropShadow_185_453" result="shape"/>
</filter>
<filter id="filter1_b_185_453" x="43.8503" y="45.0779" width="20.2998" height="17.0671" filterUnits="userSpaceOnUse" color-interpolation-filters="sRGB">
<feFlood flood-opacity="0" result="BackgroundImageFix"/>
<feGaussianBlur in="BackgroundImageFix" stdDeviation="1.5"/>
<feComposite in2="SourceAlpha" operator="in" result="effect1_backgroundBlur_185_453"/>
<feBlend mode="normal" in="SourceGraphic" in2="effect1_backgroundBlur_185_453" result="shape"/>
</filter>
<linearGradient id="paint0_linear_185_453" x1="54.0002" y1="45.9951" x2="54.0002" y2="58.9951" gradientUnits="userSpaceOnUse">
<stop stop-color="white"/>
<stop offset="1" stop-color="white" stop-opacity="0"/>
</linearGradient>
</defs>
</svg>
